<svg xmlns="http://www.w3.org/2000/svg" version="1.1" xmlns:xlink="http://www.w3.org/1999/xlink" xmlns:svgjs="http://svgjs.dev/svgjs" width="1000" height="623" viewBox="0 0 1000 623"><g transform="matrix(1,0,0,1,-0.6060606060606233,0.2522267206477409)"><svg viewBox="0 0 396 247" data-background-color="#111111" preserveAspectRatio="xMidYMid meet" height="623" width="1000" xmlns="http://www.w3.org/2000/svg" xmlns:xlink="http://www.w3.org/1999/xlink"><g id="tight-bounds" transform="matrix(1,0,0,1,0.2400000000000091,-0.09999999999999432)"><svg viewBox="0 0 395.52 247.2" height="247.2" width="395.52"><g><svg></svg></g><g><svg viewBox="0 0 395.52 247.2" height="247.2" width="395.52"><g transform="matrix(1,0,0,1,75.54432000000001,47.46028491978609)"><svg viewBox="0 0 244.43135999999996 152.2794301604278" height="152.2794301604278" width="244.43135999999996"><g><svg viewBox="0 0 244.43135999999996 152.2794301604278" height="152.2794301604278" width="244.43135999999996"><g><svg viewBox="0 0 244.43135999999996 152.2794301604278" height="152.2794301604278" width="244.43135999999996"><g><svg viewBox="0 0 244.43135999999996 152.2794301604278" height="152.2794301604278" width="244.43135999999996"><g id="textblocktransform"><svg viewBox="0 0 244.43135999999996 152.2794301604278" height="152.2794301604278" width="244.43135999999996" id="textblock"><g><svg viewBox="0 0 244.43135999999996 152.2794301604278" height="152.2794301604278" width="244.43135999999996"><g transform="matrix(1,0,0,1,0,0)"><svg width="244.43135999999996" viewBox="0.45000001788139343 -34.95000076293945 56.099998474121094 34.95000076293945" height="152.2794301604278" data-palette-color="#ffffff"><path d="M23.1-34.5L28.35-34.5 16.7-11.55 12.15-11.55 0.45-34.5 5.75-34.5 12.75-20.3Q13.2-19.35 13.55-18.32 13.9-17.3 14.25-16.3L14.25-16.3 14.6-16.3Q14.95-17.3 15.33-18.32 15.7-19.35 16.1-20.25L16.1-20.25 23.1-34.5ZM11.9-14.95L16.9-14.95 16.9 0 11.9 0 11.9-14.95ZM45.15-34.95L45.15-34.95Q49.4-34.95 51.9-34 54.4-33.05 55.47-30.7 56.55-28.35 56.55-24.05L56.55-24.05Q56.55-19.8 55.5-17.43 54.45-15.05 52.07-14.13 49.7-13.2 45.75-13.2L45.75-13.2Q43.6-13.2 41.62-13.3 39.65-13.4 38-13.6 36.35-13.8 35.17-14.03 34-14.25 33.55-14.45L33.55-14.45 33.7-17.35Q36.4-17.35 39.3-17.35 42.2-17.35 45.1-17.35L45.1-17.35Q47.5-17.4 48.9-17.95 50.3-18.5 50.9-19.95 51.5-21.4 51.5-24.05L51.5-24.05Q51.5-26.75 50.9-28.2 50.3-29.65 48.9-30.23 47.5-30.8 45.1-30.8L45.1-30.8Q40.9-30.8 37.85-30.75 34.8-30.7 33.75-30.6L33.75-30.6 33.05-34.5Q34.95-34.7 36.65-34.8 38.35-34.9 40.35-34.93 42.35-34.95 45.15-34.95ZM33.05-34.5L38.05-34.5 38.05 0 33.05 0 33.05-34.5Z" opacity="1" transform="matrix(1,0,0,1,0,0)" fill="#ffffff" class="wordmark-text-0" data-fill-palette-color="primary" id="text-0"></path></svg></g></svg></g></svg></g></svg></g></svg></g></svg></g></svg></g><g><path d="M245.816 0c68.262 0 123.6 55.338 123.6 123.6 0 68.262-55.338 123.6-123.6 123.6-30.57 0-58.548-11.098-80.125-29.486l11.052 0c19.342 14.219 43.226 22.619 69.073 22.62 64.47 0 116.734-52.263 116.733-116.734 0-64.47-52.263-116.734-116.733-116.734-25.847 0-49.731 8.4-69.073 22.62l-11.052 0c21.577-18.387 49.555-29.486 80.125-29.486z" fill="#ffffff" stroke="transparent" data-fill-palette-color="tertiary"></path></g></svg></g><defs></defs></svg><rect width="395.52" height="247.2" fill="none" stroke="none" visibility="hidden"></rect></g></svg></g></svg>